<svg width="48" height="48" viewBox="0 0 24 24" fill="none" xmlns="http://www.w3.org/2000/svg">
  <path d="M20 16V6C20 4.89543 19.1046 4 18 4H6C4.89543 4 4 4.89543 4 6V16M4 16H20M4 16L3 19C3 19.5523 3.44772 20 4 20H20C20.5523 20 21 19.5523 21 19L20 16" stroke="#7C3AED" stroke-width="2" stroke-linecap="round" stroke-linejoin="round"/>
  <path d="M12 14C13.1046 14 14 13.1046 14 12C14 10.8954 13.1046 10 12 10C10.8954 10 10 10.8954 10 12C10 13.1046 10.8954 14 12 14Z" stroke="#7C3AED" stroke-width="2" stroke-linecap="round"/>
</svg>
