<svg width="48" height="48" viewBox="0 0 24 24" fill="none" xmlns="http://www.w3.org/2000/svg">
  <path d="M4 11V13C4 17.4183 7.58172 21 12 21C16.4183 21 20 17.4183 20 13V11M4 11C4 6.58172 7.58172 3 12 3C16.4183 3 20 6.58172 20 11M4 11H3C2.44772 11 2 11.4477 2 12V14C2 14.5523 2.44772 15 3 15H4M20 11H21C21.5523 11 22 11.4477 22 12V14C22 14.5523 21.5523 15 21 15H20M12 21V22M9 18C9 18.5523 9.44772 19 10 19H14C14.5523 19 15 18.5523 15 18" stroke="#7C3AED" stroke-width="2" stroke-linecap="round" stroke-linejoin="round"/>
</svg>
